<mxfile host="app.diagrams.net" modified="2023-11-21T09:39:29.937Z" agent="Mozilla/5.0 (Macintosh; Intel Mac OS X 10.15; rv:109.0) Gecko/20100101 Firefox/119.0" etag="40qgdjpjkOcCSp9dbdgp" version="21.7.4" type="github">
  <diagram name="Page-1" id="DW93dAVyU3f4orjEcpb4">
    <mxGraphModel dx="1122" dy="755" grid="1" gridSize="10" guides="1" tooltips="1" connect="1" arrows="1" fold="1" page="0" pageScale="1" pageWidth="827" pageHeight="1169" background="#1A1A1A" math="0" shadow="0">
      <root>
        <mxCell id="0" />
        <mxCell id="1" parent="0" />
        <mxCell id="jgxPLXtCuc_X27ii6C6k-1" value="" style="image;sketch=0;aspect=fixed;html=1;points=[];align=center;fontSize=12;image=img/lib/mscae/Cognitive_Services.svg;" parent="1" vertex="1">
          <mxGeometry x="675.5" y="290.13" width="100" height="60" as="geometry" />
        </mxCell>
        <mxCell id="jgxPLXtCuc_X27ii6C6k-3" value="" style="rounded=0;whiteSpace=wrap;html=1;labelBorderColor=#2B9CFF;labelBackgroundColor=#66B2FF;textOpacity=50;strokeColor=#6c8ebf;fillStyle=solid;opacity=90;fillColor=#dae8fc;" parent="1" vertex="1">
          <mxGeometry x="670.5" y="32.4" width="120" height="140.5" as="geometry" />
        </mxCell>
        <mxCell id="jgxPLXtCuc_X27ii6C6k-4" value="malicious&amp;nbsp; pattern detection" style="text;html=1;strokeColor=none;fillColor=#1A1A1A;align=center;verticalAlign=middle;whiteSpace=wrap;rounded=0;fontColor=#FFFFFF;" parent="1" vertex="1">
          <mxGeometry x="700.5" y="130" width="60" height="40" as="geometry" />
        </mxCell>
        <mxCell id="jgxPLXtCuc_X27ii6C6k-5" value="" style="shape=image;html=1;verticalAlign=top;verticalLabelPosition=bottom;labelBackgroundColor=#ffffff;imageAspect=0;aspect=fixed;image=https://cdn0.iconfinder.com/data/icons/kameleon-free-pack-rounded/110/Hacker-128.png" parent="1" vertex="1">
          <mxGeometry x="691" y="41.7" width="79" height="79" as="geometry" />
        </mxCell>
        <mxCell id="jgxPLXtCuc_X27ii6C6k-7" value="" style="rounded=0;whiteSpace=wrap;html=1;labelBorderColor=#2B9CFF;labelBackgroundColor=#66B2FF;textOpacity=50;strokeColor=#6c8ebf;fillStyle=solid;opacity=90;fillColor=#dae8fc;" parent="1" vertex="1">
          <mxGeometry x="670.5" y="500" width="120" height="150" as="geometry" />
        </mxCell>
        <mxCell id="jgxPLXtCuc_X27ii6C6k-8" value="" style="fontColor=#0066CC;verticalAlign=top;verticalLabelPosition=bottom;labelPosition=center;align=center;html=1;outlineConnect=0;fillColor=#FF9933;strokeColor=#6881B3;gradientColor=none;gradientDirection=north;strokeWidth=2;shape=mxgraph.networks.users;" parent="1" vertex="1">
          <mxGeometry x="688.25" y="510" width="84.5" height="70" as="geometry" />
        </mxCell>
        <mxCell id="jgxPLXtCuc_X27ii6C6k-9" value="Behaviour based analysis" style="text;html=1;strokeColor=none;fillColor=none;align=center;verticalAlign=middle;whiteSpace=wrap;rounded=0;" parent="1" vertex="1">
          <mxGeometry x="700.5" y="585" width="60" height="30" as="geometry" />
        </mxCell>
        <mxCell id="jgxPLXtCuc_X27ii6C6k-15" style="edgeStyle=orthogonalEdgeStyle;rounded=0;orthogonalLoop=1;jettySize=auto;html=1;exitX=0.5;exitY=1;exitDx=0;exitDy=0;" parent="1" source="jgxPLXtCuc_X27ii6C6k-11" edge="1">
          <mxGeometry relative="1" as="geometry">
            <mxPoint x="414" y="400" as="targetPoint" />
          </mxGeometry>
        </mxCell>
        <mxCell id="jgxPLXtCuc_X27ii6C6k-11" value="" style="rounded=0;whiteSpace=wrap;html=1;labelBorderColor=#2B9CFF;labelBackgroundColor=#66B2FF;textOpacity=50;strokeColor=#6c8ebf;fillStyle=solid;opacity=90;fillColor=#DAE8FC;" parent="1" vertex="1">
          <mxGeometry x="360" y="260" width="120" height="120.25" as="geometry" />
        </mxCell>
        <mxCell id="jgxPLXtCuc_X27ii6C6k-12" value="" style="image;sketch=0;aspect=fixed;html=1;points=[];align=center;fontSize=12;image=img/lib/mscae/CustomDomain.svg;" parent="1" vertex="1">
          <mxGeometry x="80" y="32.4" width="116.19" height="97.6" as="geometry" />
        </mxCell>
        <mxCell id="jgxPLXtCuc_X27ii6C6k-13" value="Add-on" style="sketch=0;outlineConnect=0;fontColor=#232F3E;gradientColor=none;strokeColor=#232F3E;fillColor=#ffffff;dashed=0;verticalLabelPosition=bottom;verticalAlign=top;align=center;html=1;fontSize=12;fontStyle=0;aspect=fixed;shape=mxgraph.aws4.resourceIcon;resIcon=mxgraph.aws4.addon;" parent="1" vertex="1">
          <mxGeometry x="390" y="280" width="60" height="60" as="geometry" />
        </mxCell>
        <mxCell id="jgxPLXtCuc_X27ii6C6k-16" value="" style="rounded=0;whiteSpace=wrap;html=1;fillColor=#007FFF;" parent="1" vertex="1">
          <mxGeometry x="360" y="440" width="120" height="60" as="geometry" />
        </mxCell>
        <mxCell id="jgxPLXtCuc_X27ii6C6k-17" value="" style="rounded=0;whiteSpace=wrap;html=1;fillColor=#007FFF;" parent="1" vertex="1">
          <mxGeometry x="360" y="540" width="120" height="60" as="geometry" />
        </mxCell>
        <mxCell id="jgxPLXtCuc_X27ii6C6k-18" value="" style="rounded=0;whiteSpace=wrap;html=1;fillColor=#007FFF;" parent="1" vertex="1">
          <mxGeometry x="360" y="650" width="120" height="60" as="geometry" />
        </mxCell>
        <mxCell id="jgxPLXtCuc_X27ii6C6k-19" value="List of extensions" style="text;html=1;strokeColor=none;fillColor=none;align=center;verticalAlign=middle;whiteSpace=wrap;rounded=0;" parent="1" vertex="1">
          <mxGeometry x="390" y="455" width="60" height="30" as="geometry" />
        </mxCell>
        <mxCell id="jgxPLXtCuc_X27ii6C6k-22" value="Update tracker" style="text;html=1;strokeColor=none;fillColor=none;align=center;verticalAlign=middle;whiteSpace=wrap;rounded=0;" parent="1" vertex="1">
          <mxGeometry x="384" y="555" width="60" height="30" as="geometry" />
        </mxCell>
        <mxCell id="jgxPLXtCuc_X27ii6C6k-23" value="security analysis" style="text;html=1;strokeColor=none;fillColor=none;align=center;verticalAlign=middle;whiteSpace=wrap;rounded=0;" parent="1" vertex="1">
          <mxGeometry x="384" y="660" width="60" height="30" as="geometry" />
        </mxCell>
        <mxCell id="jgxPLXtCuc_X27ii6C6k-42" style="edgeStyle=orthogonalEdgeStyle;rounded=0;orthogonalLoop=1;jettySize=auto;html=1;exitX=1;exitY=0;exitDx=0;exitDy=0;" parent="1" source="jgxPLXtCuc_X27ii6C6k-35" edge="1">
          <mxGeometry relative="1" as="geometry">
            <mxPoint x="190" y="260" as="targetPoint" />
          </mxGeometry>
        </mxCell>
        <mxCell id="jgxPLXtCuc_X27ii6C6k-35" value="" style="rounded=0;whiteSpace=wrap;html=1;fillColor=#DAE8FC;" parent="1" vertex="1">
          <mxGeometry x="70" y="250" width="110" height="130" as="geometry" />
        </mxCell>
        <mxCell id="jgxPLXtCuc_X27ii6C6k-36" value="Add-on" style="sketch=0;outlineConnect=0;fontColor=#232F3E;gradientColor=none;strokeColor=#232F3E;fillColor=#ffffff;dashed=0;verticalLabelPosition=bottom;verticalAlign=top;align=center;html=1;fontSize=12;fontStyle=0;aspect=fixed;shape=mxgraph.aws4.resourceIcon;resIcon=mxgraph.aws4.addon;" parent="1" vertex="1">
          <mxGeometry x="140" y="270" width="30" height="30" as="geometry" />
        </mxCell>
        <mxCell id="jgxPLXtCuc_X27ii6C6k-37" value="Add-on" style="sketch=0;outlineConnect=0;fontColor=#232F3E;gradientColor=none;strokeColor=#232F3E;fillColor=#ffffff;dashed=0;verticalLabelPosition=bottom;verticalAlign=top;align=center;html=1;fontSize=12;fontStyle=0;aspect=fixed;shape=mxgraph.aws4.resourceIcon;resIcon=mxgraph.aws4.addon;" parent="1" vertex="1">
          <mxGeometry x="80" y="270" width="30" height="30" as="geometry" />
        </mxCell>
        <mxCell id="jgxPLXtCuc_X27ii6C6k-38" value="Add-on" style="sketch=0;outlineConnect=0;fontColor=#232F3E;gradientColor=none;strokeColor=#232F3E;fillColor=#ffffff;dashed=0;verticalLabelPosition=bottom;verticalAlign=top;align=center;html=1;fontSize=12;fontStyle=0;aspect=fixed;shape=mxgraph.aws4.resourceIcon;resIcon=mxgraph.aws4.addon;" parent="1" vertex="1">
          <mxGeometry x="80" y="330" width="30" height="30" as="geometry" />
        </mxCell>
        <mxCell id="jgxPLXtCuc_X27ii6C6k-39" value="Add-on" style="sketch=0;outlineConnect=0;fontColor=#232F3E;gradientColor=none;strokeColor=#232F3E;fillColor=#ffffff;dashed=0;verticalLabelPosition=bottom;verticalAlign=top;align=center;html=1;fontSize=12;fontStyle=0;aspect=fixed;shape=mxgraph.aws4.resourceIcon;resIcon=mxgraph.aws4.addon;" parent="1" vertex="1">
          <mxGeometry x="140" y="330" width="30" height="30" as="geometry" />
        </mxCell>
        <mxCell id="jgxPLXtCuc_X27ii6C6k-40" value="" style="image;html=1;image=img/lib/clip_art/computers/Server_Rack_128x128.png" parent="1" vertex="1">
          <mxGeometry x="384" y="20" width="80" height="110" as="geometry" />
        </mxCell>
        <mxCell id="jgxPLXtCuc_X27ii6C6k-41" value="&lt;font color=&quot;#ffffff&quot;&gt;API Server&lt;/font&gt;" style="text;html=1;strokeColor=none;fillColor=none;align=center;verticalAlign=middle;whiteSpace=wrap;rounded=0;" parent="1" vertex="1">
          <mxGeometry x="394" y="130" width="60" height="30" as="geometry" />
        </mxCell>
        <mxCell id="jgxPLXtCuc_X27ii6C6k-43" value="&lt;font color=&quot;#ffffff&quot;&gt;AI&lt;/font&gt;" style="text;html=1;strokeColor=none;fillColor=none;align=center;verticalAlign=middle;whiteSpace=wrap;rounded=0;" parent="1" vertex="1">
          <mxGeometry x="695.5" y="295" width="60" height="30" as="geometry" />
        </mxCell>
        <mxCell id="jgxPLXtCuc_X27ii6C6k-44" value="" style="image;aspect=fixed;html=1;points=[];align=center;fontSize=12;image=img/lib/azure2/compute/OS_Images_Classic.svg;" parent="1" vertex="1">
          <mxGeometry x="101" y="446" width="69" height="64" as="geometry" />
        </mxCell>
        <mxCell id="jgxPLXtCuc_X27ii6C6k-46" value="" style="endArrow=classic;html=1;rounded=0;entryX=0.433;entryY=0.747;entryDx=0;entryDy=0;entryPerimeter=0;exitX=0.5;exitY=0;exitDx=0;exitDy=0;strokeColor=#FFFFFF;flowAnimation=1;" parent="1" source="jgxPLXtCuc_X27ii6C6k-11" target="jgxPLXtCuc_X27ii6C6k-41" edge="1">
          <mxGeometry width="50" height="50" relative="1" as="geometry">
            <mxPoint x="400" y="260" as="sourcePoint" />
            <mxPoint x="450" y="210" as="targetPoint" />
          </mxGeometry>
        </mxCell>
        <mxCell id="jgxPLXtCuc_X27ii6C6k-48" value="" style="endArrow=classic;html=1;rounded=0;strokeColor=#FFFFFF;entryX=0.5;entryY=0;entryDx=0;entryDy=0;exitX=0.535;exitY=1.048;exitDx=0;exitDy=0;exitPerimeter=0;flowAnimation=1;" parent="1" source="jgxPLXtCuc_X27ii6C6k-1" target="jgxPLXtCuc_X27ii6C6k-7" edge="1">
          <mxGeometry width="50" height="50" relative="1" as="geometry">
            <mxPoint x="731" y="380" as="sourcePoint" />
            <mxPoint x="632.3385469669483" y="511.01" as="targetPoint" />
          </mxGeometry>
        </mxCell>
        <mxCell id="jgxPLXtCuc_X27ii6C6k-49" value="" style="endArrow=classic;html=1;rounded=0;entryX=0.5;entryY=1;entryDx=0;entryDy=0;strokeColor=#FFFFFF;flowAnimation=1;" parent="1" target="jgxPLXtCuc_X27ii6C6k-3" edge="1">
          <mxGeometry width="50" height="50" relative="1" as="geometry">
            <mxPoint x="731" y="290" as="sourcePoint" />
            <mxPoint x="725" y="135" as="targetPoint" />
          </mxGeometry>
        </mxCell>
        <mxCell id="jgxPLXtCuc_X27ii6C6k-50" value="" style="endArrow=classic;html=1;rounded=0;strokeColor=#FFFFFF;exitX=0;exitY=0.25;exitDx=0;exitDy=0;entryX=0.998;entryY=0.57;entryDx=0;entryDy=0;entryPerimeter=0;flowAnimation=1;" parent="1" source="jgxPLXtCuc_X27ii6C6k-11" target="jgxPLXtCuc_X27ii6C6k-12" edge="1">
          <mxGeometry width="50" height="50" relative="1" as="geometry">
            <mxPoint x="240.5" y="100" as="sourcePoint" />
            <mxPoint x="240" y="130" as="targetPoint" />
            <Array as="points">
              <mxPoint x="320" y="290" />
              <mxPoint x="320" y="88" />
            </Array>
          </mxGeometry>
        </mxCell>
        <mxCell id="jgxPLXtCuc_X27ii6C6k-51" value="" style="endArrow=classic;html=1;rounded=0;strokeColor=#FFFFFF;entryX=0.442;entryY=0;entryDx=0;entryDy=0;entryPerimeter=0;flowAnimation=1;" parent="1" target="jgxPLXtCuc_X27ii6C6k-16" edge="1">
          <mxGeometry width="50" height="50" relative="1" as="geometry">
            <mxPoint x="413.5" y="380" as="sourcePoint" />
            <mxPoint x="413" y="430" as="targetPoint" />
          </mxGeometry>
        </mxCell>
        <mxCell id="jgxPLXtCuc_X27ii6C6k-52" value="" style="endArrow=classic;html=1;rounded=0;strokeColor=#FFFFFF;entryX=0.5;entryY=0;entryDx=0;entryDy=0;exitX=0.5;exitY=1;exitDx=0;exitDy=0;flowAnimation=1;" parent="1" source="jgxPLXtCuc_X27ii6C6k-16" target="jgxPLXtCuc_X27ii6C6k-17" edge="1">
          <mxGeometry width="50" height="50" relative="1" as="geometry">
            <mxPoint x="420" y="500" as="sourcePoint" />
            <mxPoint x="413.5" y="530" as="targetPoint" />
          </mxGeometry>
        </mxCell>
        <mxCell id="jgxPLXtCuc_X27ii6C6k-53" value="" style="endArrow=classic;html=1;rounded=0;strokeColor=#FFFFFF;exitX=0.5;exitY=1;exitDx=0;exitDy=0;entryX=0.5;entryY=0;entryDx=0;entryDy=0;flowAnimation=1;" parent="1" source="jgxPLXtCuc_X27ii6C6k-17" target="jgxPLXtCuc_X27ii6C6k-18" edge="1">
          <mxGeometry width="50" height="50" relative="1" as="geometry">
            <mxPoint x="424" y="620" as="sourcePoint" />
            <mxPoint x="420" y="630" as="targetPoint" />
          </mxGeometry>
        </mxCell>
        <mxCell id="jgxPLXtCuc_X27ii6C6k-54" value="" style="endArrow=classic;html=1;rounded=0;strokeColor=#FFFFFF;" parent="1" edge="1">
          <mxGeometry width="50" height="50" relative="1" as="geometry">
            <mxPoint x="550" y="190" as="sourcePoint" />
            <mxPoint x="600" y="140" as="targetPoint" />
          </mxGeometry>
        </mxCell>
        <mxCell id="jgxPLXtCuc_X27ii6C6k-55" value="" style="endArrow=classic;html=1;rounded=0;strokeColor=#FFFFFF;entryX=0;entryY=0.15;entryDx=0;entryDy=0;entryPerimeter=0;flowAnimation=1;" parent="1" target="jgxPLXtCuc_X27ii6C6k-11" edge="1">
          <mxGeometry width="50" height="50" relative="1" as="geometry">
            <mxPoint x="200" y="71" as="sourcePoint" />
            <mxPoint x="357.2" y="279.9995" as="targetPoint" />
            <Array as="points">
              <mxPoint x="341.16" y="71" />
              <mxPoint x="341" y="280" />
            </Array>
          </mxGeometry>
        </mxCell>
        <mxCell id="jgxPLXtCuc_X27ii6C6k-56" value="&lt;font color=&quot;#ffffff&quot;&gt;OS Agent&lt;/font&gt;" style="text;html=1;strokeColor=none;fillColor=none;align=center;verticalAlign=middle;whiteSpace=wrap;rounded=0;" parent="1" vertex="1">
          <mxGeometry x="101" y="515" width="60" height="30" as="geometry" />
        </mxCell>
        <mxCell id="jgxPLXtCuc_X27ii6C6k-57" value="" style="endArrow=classic;html=1;rounded=0;strokeColor=#FFFFFF;exitX=0.015;exitY=0.498;exitDx=0;exitDy=0;exitPerimeter=0;entryX=1;entryY=0.5;entryDx=0;entryDy=0;flowAnimation=1;" parent="1" source="jgxPLXtCuc_X27ii6C6k-1" target="jgxPLXtCuc_X27ii6C6k-11" edge="1">
          <mxGeometry width="50" height="50" relative="1" as="geometry">
            <mxPoint x="560" y="290.13" as="sourcePoint" />
            <mxPoint x="610" y="240.13" as="targetPoint" />
          </mxGeometry>
        </mxCell>
        <mxCell id="jgxPLXtCuc_X27ii6C6k-58" style="edgeStyle=orthogonalEdgeStyle;rounded=0;orthogonalLoop=1;jettySize=auto;html=1;exitX=0.5;exitY=1;exitDx=0;exitDy=0;" parent="1" source="jgxPLXtCuc_X27ii6C6k-7" target="jgxPLXtCuc_X27ii6C6k-7" edge="1">
          <mxGeometry relative="1" as="geometry" />
        </mxCell>
        <mxCell id="jgxPLXtCuc_X27ii6C6k-59" style="edgeStyle=orthogonalEdgeStyle;rounded=0;orthogonalLoop=1;jettySize=auto;html=1;exitX=1;exitY=1;exitDx=0;exitDy=0;" parent="1" source="jgxPLXtCuc_X27ii6C6k-7" target="jgxPLXtCuc_X27ii6C6k-7" edge="1">
          <mxGeometry relative="1" as="geometry" />
        </mxCell>
      </root>
    </mxGraphModel>
  </diagram>
</mxfile>
